# xmcd
#
# Track frame offsets: 
#        150
#        17672
#        47395
#
# Disc length: 989 seconds
#
# Revision: 7
# Processed by: cddbd v1.5.2PL0 Copyright (c) Steve Scherf et al.
# Submitted via: ExactAudioCopy v1.0b6
#
DISCID=1603db03
DTITLE=Dance 2 Trance - P→ower Of A★merican N▪atives
DYEAR=1992
DGENRE=Trance
TTITLE0=P→ower Of A★merican N▪atives (Airplay Edit)
TTITLE1=P→ower Of A★merican N▪atives (Vocal Mix)
TTITLE2=P→ower Of A★merican N▪atives (Ethno Instrumental Mix)
EXTD=
EXTT0=
EXTT1=
EXTT2=
PLAYORDER=
